<?xml version="1.0" encoding="utf-8"?>
<!-- Generator: Adobe Illustrator 24.2.3, SVG Export Plug-In . SVG Version: 6.00 Build 0)  -->
<svg version="1.1" id="图层_1" xmlns="http://www.w3.org/2000/svg" xmlns:xlink="http://www.w3.org/1999/xlink" x="0px" y="0px"
	 viewBox="0 0 18 18" style="enable-background:new 0 0 18 18;" xml:space="preserve">
<style type="text/css">
	.st0{fill-rule:evenodd;clip-rule:evenodd;fill:#fff;}
</style>
<g id="FD-WebDesign">
	<g id="Fish-Design-1.2" transform="translate(-910.000000, -427.000000)">
		<g id="编组" transform="translate(785.000000, 274.000000)">
			<g id="Group-17" transform="translate(0.000000, 142.000000)">
				<g id="fd-web-2.2-github" transform="translate(125.000000, 11.000000)">
					<path id="Fill-1" class="st0" d="M9,0C4,0,0,4.1,0,9.2c0,4.1,2.6,7.5,6.2,8.8c0.5,0.1,0.6-0.2,0.6-0.4c0-0.2,0-0.8,0-1.6
						c-2.5,0.6-3-1.2-3-1.2c-0.4-1.1-1-1.3-1-1.3c-0.8-0.6,0.1-0.6,0.1-0.6c0.9,0.1,1.4,1,1.4,1c0.8,1.4,2.1,1,2.6,0.8
						c0.1-0.6,0.3-1,0.6-1.2c-2-0.2-4.1-1-4.1-4.6c0-1,0.4-1.8,0.9-2.5C4.1,6,3.8,5.1,4.3,3.8c0,0,0.8-0.2,2.5,0.9
						C7.5,4.6,8.2,4.5,9,4.5c0.8,0,1.5,0.1,2.3,0.3c1.7-1.2,2.5-0.9,2.5-0.9c0.5,1.3,0.2,2.2,0.1,2.4c0.6,0.6,0.9,1.5,0.9,2.5
						c0,3.5-2.1,4.3-4.1,4.6c0.3,0.3,0.6,0.8,0.6,1.7c0,1.2,0,2.2,0,2.5c0,0.2,0.2,0.5,0.6,0.4c3.6-1.2,6.1-4.7,6.1-8.8
						C18,4.1,14,0,9,0"/>
				</g>
			</g>
		</g>
	</g>
</g>
</svg>
